HIERARCHY
ROOT Hips
{
	OFFSET 0 0 0
	CHANNELS 6 Xposition Yposition Zposition Zrotation Xrotation Yrotation 
	JOINT RightUpLeg
	{
		OFFSET -3.17 -2.64 -0.26
		CHANNELS 3 Zrotation Xrotation Yrotation 
		JOINT RightLeg
		{
			OFFSET -0.36 -13.7 -0.45
			CHANNELS 3 Zrotation Xrotation Yrotation 
			End Site
			{
				OFFSET 0.13 -14.01 -0.08
			}
		}
	}
	JOINT LeftUpLeg
	{
		OFFSET 3.17 -2.64 -0.26
		CHANNELS 3 Zrotation Xrotation Yrotation 
		JOINT LeftLeg
		{
			OFFSET 0.36 -13.7 -0.45
			CHANNELS 3 Zrotation Xrotation Yrotation 
			End Site
			{
				OFFSET -0.13 -14.01 -0.08
			}
		}
	}
	JOINT Spine
	{
		OFFSET 0 2.88 0
		CHANNELS 3 Zrotation Xrotation Yrotation 
		JOINT Spine1
		{
			OFFSET 0 3.38 0
			CHANNELS 3 Zrotation Xrotation Yrotation 
			JOINT Spine2
			{
				OFFSET 0 3.61 0
				CHANNELS 3 Zrotation Xrotation Yrotation 
				JOINT Spine3
				{
					OFFSET 0 3.52 0.37
					CHANNELS 3 Zrotation Xrotation Yrotation 
					JOINT Neck
					{
						OFFSET 0 3.62 -0.37
						CHANNELS 3 Zrotation Xrotation Yrotation 
						End Site
						{
							OFFSET 0 3 0
						}
					}
					JOINT RightShoulder
					{
						OFFSET -1.47 1.22 -0.37
						CHANNELS 3 Zrotation Xrotation Yrotation 
						JOINT RightArm
						{
							OFFSET -4.69 0 0
							CHANNELS 3 Zrotation Xrotation Yrotation 
							JOINT RightForeArm
							{
								OFFSET -7.76 0 0
								CHANNELS 3 Zrotation Xrotation Yrotation 
								JOINT RightHand
								{
									OFFSET -8.52 0 0
									CHANNELS 3 Zrotation Xrotation Yrotation 
									JOINT RightHandThumb1
									{
										OFFSET -1.01 0.08 1.27
										CHANNELS 3 Zrotation Xrotation Yrotation 
										JOINT RightHandThumb2
										{
											OFFSET -1.5 0 -0.01
											CHANNELS 3 Zrotation Xrotation Yrotation 
											End Site
											{
												OFFSET -1.04 0 -0.01
											}
										}
									}
									JOINT RightInHandIndex
									{
										OFFSET -1.31 0.21 0.81
										CHANNELS 3 Zrotation Xrotation Yrotation 
										JOINT RightHandIndex1
										{
											OFFSET -2.13 -0.04 0.41
											CHANNELS 3 Zrotation Xrotation Yrotation 
											JOINT RightHandIndex2
											{
												OFFSET -1.47 -0.07 0
												CHANNELS 3 Zrotation Xrotation Yrotation 
												End Site
												{
													OFFSET -0.83 -0.05 0
												}
											}
										}
									}
									JOINT RightInHandMiddle
									{
										OFFSET -1.38 0.21 0.31
										CHANNELS 3 Zrotation Xrotation Yrotation 
										JOINT RightHandMiddle1
										{
											OFFSET -2.11 -0.03 0.13
											CHANNELS 3 Zrotation Xrotation Yrotation 
											JOINT RightHandMiddle2
											{
												OFFSET -1.6 -0.11 0
												CHANNELS 3 Zrotation Xrotation Yrotation 
												End Site
												{
													OFFSET -1 -0.08 0
												}
											}
										}
									}
									JOINT RightInHandRing
									{
										OFFSET -1.37 0.22 -0.05
										CHANNELS 3 Zrotation Xrotation Yrotation 
										JOINT RightHandRing1
										{
											OFFSET -1.89 -0.01 -0.2
											CHANNELS 3 Zrotation Xrotation Yrotation 
											JOINT RightHandRing2
											{
												OFFSET -1.4 -0.13 0
												CHANNELS 3 Zrotation Xrotation Yrotation 
												End Site
												{
													OFFSET -0.97 -0.08 0
												}
											}
										}
									}
									JOINT RightInHandPinky
									{
										OFFSET -1.29 0.19 -0.49
										CHANNELS 3 Zrotation Xrotation Yrotation 
										JOINT RightHandPinky1
										{
											OFFSET -1.69 -0.01 -0.44
											CHANNELS 3 Zrotation Xrotation Yrotation 
											JOINT RightHandPinky2
											{
												OFFSET -1.12 -0.06 -0.01
												CHANNELS 3 Zrotation Xrotation Yrotation 
												End Site
												{
													OFFSET -0.71 -0.05 0
												}
											}
										}
									}
								}
							}
						}
					}
					JOINT LeftShoulder
					{
						OFFSET 1.47 1.22 -0.37
						CHANNELS 3 Zrotation Xrotation Yrotation 
						JOINT LeftArm
						{
							OFFSET 4.69 0 0
							CHANNELS 3 Zrotation Xrotation Yrotation 
							JOINT LeftForeArm
							{
								OFFSET 7.76 0 0
								CHANNELS 3 Zrotation Xrotation Yrotation 
								JOINT LeftHand
								{
									OFFSET 8.52 0 0
									CHANNELS 3 Zrotation Xrotation Yrotation 
									JOINT LeftHandThumb1
									{
										OFFSET 1.01 0.08 1.27
										CHANNELS 3 Zrotation Xrotation Yrotation 
										JOINT LeftHandThumb2
										{
											OFFSET 1.5 0 0
											CHANNELS 3 Zrotation Xrotation Yrotation 
											End Site
											{
												OFFSET 1.04 0 0
											}
										}
									}
									JOINT LeftInHandIndex
									{
										OFFSET 1.31 0.21 0.81
										CHANNELS 3 Zrotation Xrotation Yrotation 
										JOINT LeftHandIndex1
										{
											OFFSET 2.13 -0.04 0.41
											CHANNELS 3 Zrotation Xrotation Yrotation 
											JOINT LeftHandIndex2
											{
												OFFSET 1.47 -0.07 0
												CHANNELS 3 Zrotation Xrotation Yrotation 
												End Site
												{
													OFFSET 0.83 -0.05 0
												}
											}
										}
									}
									JOINT LeftInHandMiddle
									{
										OFFSET 1.38 0.21 0.31
										CHANNELS 3 Zrotation Xrotation Yrotation 
										JOINT LeftHandMiddle1
										{
											OFFSET 2.11 -0.03 0.13
											CHANNELS 3 Zrotation Xrotation Yrotation 
											JOINT LeftHandMiddle2
											{
												OFFSET 1.6 -0.11 0
												CHANNELS 3 Zrotation Xrotation Yrotation 
												End Site
												{
													OFFSET 1 -0.08 0
												}
											}
										}
									}
									JOINT LeftInHandRing
									{
										OFFSET 1.37 0.22 -0.05
										CHANNELS 3 Zrotation Xrotation Yrotation 
										JOINT LeftHandRing1
										{
											OFFSET 1.89 -0.01 -0.2
											CHANNELS 3 Zrotation Xrotation Yrotation 
											JOINT LeftHandRing2
											{
												OFFSET 1.4 -0.11 0
												CHANNELS 3 Zrotation Xrotation Yrotation 
												End Site
												{
													OFFSET 0.97 -0.07 0
												}
											}
										}
									}
									JOINT LeftInHandPinky
									{
										OFFSET 1.29 0.19 -0.49
										CHANNELS 3 Zrotation Xrotation Yrotation 
										JOINT LeftHandPinky1
										{
											OFFSET 1.69 -0.01 -0.44
											CHANNELS 3 Zrotation Xrotation Yrotation 
											JOINT LeftHandPinky2
											{
												OFFSET 1.12 -0.06 0
												CHANNELS 3 Zrotation Xrotation Yrotation 
												End Site
												{
													OFFSET 0.71 -0.05 0
												}
											}
										}
									}
								}
							}
						}
					}
				}
			}
		}
	}
}
MOTION
Frames: 11
Frame Time: 0.0333333
28.3124 17.6976 14.4072 359.0126 -3.9128 350.8329 36.2909 -66.9446 8.9313 0 -276.0421 0 64.1217 -357.8084 33.3883 0 -303.0031 0 353.2427 -345.6563 1.2073 358.3612 -356.3672 359.8805 357.3168 -354.0983 359.6273 359.341 -357.9548 1.5099 169.7963 -273.372 191.0512 351.0693 -350.0139 20.0936 78.9009 -31.1054 85.8882 174.1569 -323.4175 290.1138 300.2549 -288.478 74.9305 352.0278 -343.4324 116.1574 359.4142 -20.5045 88.3281 0 0 0 129.6976 -348.3507 350.4843 293.3889 0 0 0 0 0 34.7296 0 0 34.7296 0 0 0 0 0 16.8895 -4.4513 345.6612 17.4497 0 0 0 0 0 118.1217 -22.3554 11.4902 115.8439 0 0 2.2128 -5.6876 350.0811 264.3428 -9.6386 334.4757 50.7816 -299.2166 220.2975 350.8239 -347.6729 348.3274 38.5243 -314.276 221.9662 6.3881 -336.2531 254.463 0 0 0 224.3557 -349.39 10.6646 321.7442 0 0 0 0 0 12.9799 0 0 12.9799 0 0 0 0 0 359.925 -0.0201 15 359.9223 0 0 0 0 0 32.1892 -346.0495 20.9565 34.7816 0 0 
28.3124 17.6976 14.4072 359.0126 -3.9128 350.8329 36.2909 -66.9446 8.9313 0 -276.0421 0 64.1217 -357.8084 33.3883 0 -303.0031 0 353.2427 -345.6563 1.2073 358.3612 -356.3672 359.8805 357.3168 -354.0983 359.6273 359.341 -357.9548 1.5099 169.7963 -273.372 191.0512 351.0693 -350.0139 20.0936 78.9009 -31.1054 85.8882 174.1569 -323.4175 290.1138 300.2549 -288.478 74.9305 352.0278 -343.4324 116.1574 359.4142 -20.5045 88.3281 0 0 0 129.6976 -348.3507 350.4843 293.3889 0 0 0 0 0 34.7296 0 0 34.7296 0 0 0 0 0 16.8895 -4.4513 345.6612 17.4497 0 0 0 0 0 118.1217 -22.3554 11.4902 115.8439 0 0 2.2128 -5.6876 350.0811 264.3428 -9.6386 334.4757 50.7816 -299.2166 220.2975 350.8239 -347.6729 348.3274 38.5243 -314.276 221.9662 6.3881 -336.2531 254.463 0 0 0 224.3557 -349.39 10.6646 321.7442 0 0 0 0 0 12.9799 0 0 12.9799 0 0 0 0 0 359.925 -0.0201 15 359.9223 0 0 0 0 0 32.1892 -346.0495 20.9565 34.7816 0 0 
28.3135 17.699 14.4085 359.0135 -3.91 350.8289 36.2902 -66.9432 8.9355 0 -276.0386 0 64.1119 -357.8057 33.3872 0 -303.0042 0 353.2416 -345.6585 1.2095 358.361 -356.3677 359.881 357.3164 -354.0991 359.6282 359.341 -357.9548 1.5099 169.7963 -273.372 191.0512 351.0579 -350.0101 20.077 78.8932 -31.0919 85.885 174.166 -323.4099 290.1106 300.2335 -288.4746 74.9432 352.0275 -343.4321 116.158 359.4146 -20.504 88.3291 0 0 0 129.6946 -348.3502 350.485 293.3893 0 0 0 0 0 34.7299 0 0 34.7299 0 0 0 0 0 16.8884 -4.451 345.6611 17.4485 0 0 0 0 0 118.1219 -22.3553 11.4902 115.8441 0 0 2.2116 -5.6774 350.0719 264.3412 -9.6272 334.4759 50.7924 -299.2167 220.2896 350.8453 -347.6624 348.3551 38.5341 -314.2822 221.9531 6.398 -336.2546 254.4391 0 0 0 224.3473 -349.3915 10.6661 321.7417 0 0 0 0 0 12.9459 0 0 12.9459 0 0 0 0 0 359.9328 -0.018 15 359.9304 0 0 0 0 0 32.1848 -346.0511 20.9576 34.7771 0 0 
28.3135 17.699 14.4085 359.0135 -3.91 350.8289 36.2902 -66.9432 8.9355 0 -276.0386 0 64.1119 -357.8057 33.3872 0 -303.0042 0 353.2416 -345.6585 1.2095 358.361 -356.3677 359.881 357.3164 -354.0991 359.6282 359.341 -357.9548 1.5099 169.7963 -273.372 191.0512 351.0579 -350.0101 20.077 78.8932 -31.0919 85.885 174.166 -323.4099 290.1106 300.2335 -288.4746 74.9432 352.0275 -343.4321 116.158 359.4146 -20.504 88.3291 0 0 0 129.6946 -348.3502 350.485 293.3893 0 0 0 0 0 34.7299 0 0 34.7299 0 0 0 0 0 16.8884 -4.451 345.6611 17.4485 0 0 0 0 0 118.1219 -22.3553 11.4902 115.8441 0 0 2.2116 -5.6774 350.0719 264.3412 -9.6272 334.4759 50.7924 -299.2167 220.2896 350.8453 -347.6624 348.3551 38.5341 -314.2822 221.9531 6.398 -336.2546 254.4391 0 0 0 224.3473 -349.3915 10.6661 321.7417 0 0 0 0 0 12.9459 0 0 12.9459 0 0 0 0 0 359.9328 -0.018 15 359.9304 0 0 0 0 0 32.1848 -346.0511 20.9576 34.7771 0 0 
28.3124 17.6969 14.4066 359.0145 -3.9072 350.8249 36.3157 -66.9511 8.9565 0 -276.0357 0 64.1212 -357.8148 33.3906 0 -302.991 0 353.2405 -345.6597 1.2076 358.3606 -356.3681 359.8805 357.3159 -354.0996 359.6273 359.3417 -357.9554 1.5092 169.6716 -273.3935 191.1873 351.0644 -350.0039 20.0766 78.8501 -31.0895 85.8824 174.1641 -323.3795 290.1233 300.233 -288.469 74.957 352.0265 -343.4301 116.1582 359.4146 -20.5019 88.329 0 0 0 129.6824 -348.3482 350.4874 293.3898 0 0 0 0 0 34.7334 0 0 34.7334 0 0 0 0 0 16.8867 -4.4506 345.661 17.4469 0 0 0 0 0 118.1243 -22.3549 11.4911 115.8464 0 0 2.2133 -5.6731 350.0798 264.3412 -9.6364 334.4759 50.8197 -299.206 220.2495 350.8466 -347.6625 348.3468 38.5343 -314.2731 221.9573 6.3928 -336.2469 254.4556 0 0 0 224.3569 -349.3897 10.6644 321.7435 0 0 0 0 0 12.951 0 0 12.951 0 0 0 0 0 359.9233 -0.0205 15 359.9207 0 0 0 0 0 32.1887 -346.0497 20.9566 34.7811 0 0 
28.3124 17.6969 14.4066 359.0145 -3.9072 350.8249 36.3157 -66.9511 8.9565 0 -276.0357 0 64.1212 -357.8148 33.3906 0 -302.991 0 353.2405 -345.6597 1.2076 358.3606 -356.3681 359.8805 357.3159 -354.0996 359.6273 359.3417 -357.9554 1.5092 169.6716 -273.3935 191.1873 351.0644 -350.0039 20.0766 78.8501 -31.0895 85.8824 174.1641 -323.3795 290.1233 300.233 -288.469 74.957 352.0265 -343.4301 116.1582 359.4146 -20.5019 88.329 0 0 0 129.6824 -348.3482 350.4874 293.3898 0 0 0 0 0 34.7334 0 0 34.7334 0 0 0 0 0 16.8867 -4.4506 345.661 17.4469 0 0 0 0 0 118.1243 -22.3549 11.4911 115.8464 0 0 2.2133 -5.6731 350.0798 264.3412 -9.6364 334.4759 50.8197 -299.206 220.2495 350.8466 -347.6625 348.3468 38.5343 -314.2731 221.9573 6.3928 -336.2469 254.4556 0 0 0 224.3569 -349.3897 10.6644 321.7435 0 0 0 0 0 12.951 0 0 12.951 0 0 0 0 0 359.9233 -0.0205 15 359.9207 0 0 0 0 0 32.1887 -346.0497 20.9566 34.7811 0 0 
28.3122 17.6968 14.4063 359.0182 -3.906 350.8235 36.3128 -66.95 8.9583 0 -276.0389 0 64.1205 -357.8171 33.3953 0 -302.9866 0 353.2364 -345.6551 1.2098 358.3597 -356.3668 359.8806 357.3144 -354.0977 359.6274 359.3409 -357.955 1.5103 169.8819 -273.3763 190.9617 351.0685 -350.0137 20.0726 78.8844 -31.0819 85.8902 174.1726 -323.4093 290.1013 300.2115 -288.467 74.9815 352.0245 -343.4289 116.1622 359.4174 -20.5 88.3369 0 0 0 129.6726 -348.3466 350.4894 293.3917 0 0 0 0 0 34.7332 0 0 34.7332 0 0 0 0 0 16.8807 -4.4491 345.6605 17.4407 0 0 0 0 0 118.1232 -22.3551 11.4907 115.8453 0 0 2.2162 -5.6736 350.0721 264.3335 -9.6403 334.4641 50.8306 -299.2042 220.2457 350.8605 -347.6613 348.3611 38.5341 -314.2813 221.9535 6.3975 -336.2539 254.4406 0 0 0 224.3508 -349.3909 10.6655 321.7341 0 0 0 0 0 12.9446 0 0 12.9446 0 0 0 0 0 359.9361 -0.0171 15 359.9338 0 0 0 0 0 32.1803 -346.0529 20.9587 34.7724 0 0 
28.3122 17.6968 14.4063 359.0182 -3.906 350.8235 36.3128 -66.95 8.9583 0 -276.0389 0 64.1205 -357.8171 33.3953 0 -302.9866 0 353.2364 -345.6551 1.2098 358.3597 -356.3668 359.8806 357.3144 -354.0977 359.6274 359.3409 -357.955 1.5103 169.8819 -273.3763 190.9617 351.0685 -350.0137 20.0726 78.8844 -31.0819 85.8902 174.1726 -323.4093 290.1013 300.2115 -288.467 74.9815 352.0245 -343.4289 116.1622 359.4174 -20.5 88.3369 0 0 0 129.6726 -348.3466 350.4894 293.3917 0 0 0 0 0 34.7332 0 0 34.7332 0 0 0 0 0 16.8807 -4.4491 345.6605 17.4407 0 0 0 0 0 118.1232 -22.3551 11.4907 115.8453 0 0 2.2162 -5.6736 350.0721 264.3335 -9.6403 334.4641 50.8306 -299.2042 220.2457 350.8605 -347.6613 348.3611 38.5341 -314.2813 221.9535 6.3975 -336.2539 254.4406 0 0 0 224.3508 -349.3909 10.6655 321.7341 0 0 0 0 0 12.9446 0 0 12.9446 0 0 0 0 0 359.9361 -0.0171 15 359.9338 0 0 0 0 0 32.1803 -346.0529 20.9587 34.7724 0 0 
28.3121 17.6977 14.4044 359.0185 -3.9087 350.8213 36.3196 -66.9455 8.9682 0 -276.0474 0 64.1197 -357.82 33.4 0 -302.9847 0 353.2335 -345.6526 1.2174 358.3592 -356.366 359.8823 357.3135 -354.0964 359.6301 359.3411 -357.9546 1.5095 169.6827 -273.3666 191.1716 351.049 -350.0121 20.0733 78.9119 -31.0832 85.9005 174.1769 -323.4074 290.0905 300.2148 -288.4726 74.9796 352.0242 -343.4286 116.1627 359.4178 -20.4996 88.3378 0 0 0 129.6696 -348.3461 350.49 293.3898 0 0 0 0 0 34.7336 0 0 34.7336 0 0 0 0 0 16.8796 -4.4488 345.6604 17.4395 0 0 0 0 0 118.1233 -22.3551 11.4907 115.8454 0 0 2.2182 -5.6669 350.0702 264.3352 -9.6326 334.457 50.8269 -299.2198 220.2648 350.8539 -347.6678 348.3437 38.5368 -314.2812 221.9508 6.3991 -336.2527 254.4375 0 0 0 224.3725 -349.3868 10.6615 321.7105 0 0 0 0 0 12.9471 0 0 12.9471 0 0 0 0 0 359.9361 -0.0171 15 359.9338 0 0 0 0 0 32.1809 -346.0526 20.9585 34.7731 0 0 
28.3121 17.6977 14.4044 359.0185 -3.9087 350.8213 36.3196 -66.9455 8.9682 0 -276.0474 0 64.1197 -357.82 33.4 0 -302.9847 0 353.2335 -345.6526 1.2174 358.3592 -356.366 359.8823 357.3135 -354.0964 359.6301 359.3411 -357.9546 1.5095 169.6827 -273.3666 191.1716 351.049 -350.0121 20.0733 78.9119 -31.0832 85.9005 174.1769 -323.4074 290.0905 300.2148 -288.4726 74.9796 352.0242 -343.4286 116.1627 359.4178 -20.4996 88.3378 0 0 0 129.6696 -348.3461 350.49 293.3898 0 0 0 0 0 34.7336 0 0 34.7336 0 0 0 0 0 16.8796 -4.4488 345.6604 17.4395 0 0 0 0 0 118.1233 -22.3551 11.4907 115.8454 0 0 2.2182 -5.6669 350.0702 264.3352 -9.6326 334.457 50.8269 -299.2198 220.2648 350.8539 -347.6678 348.3437 38.5368 -314.2812 221.9508 6.3991 -336.2527 254.4375 0 0 0 224.3725 -349.3868 10.6615 321.7105 0 0 0 0 0 12.9471 0 0 12.9471 0 0 0 0 0 359.9361 -0.0171 15 359.9338 0 0 0 0 0 32.1809 -346.0526 20.9585 34.7731 0 0 
28.3139 17.6962 14.4053 359.0192 -3.9033 350.8195 36.3385 -66.9571 8.9944 0 -276.0337 0 64.1258 -357.8267 33.4073 0 -302.9634 0 353.2337 -345.6507 1.2144 358.3591 -356.3656 359.8815 357.3135 -354.0958 359.6288 359.3415 -357.955 1.5092 169.6322 -273.38 191.2281 351.054 -350.0067 20.0893 78.8601 -31.1043 85.8922 174.1917 -323.3694 290.0916 300.2409 -288.4817 74.9422 352.0244 -343.4286 116.1621 359.4174 -20.4997 88.3367 0 0 0 129.6736 -348.3468 350.4892 293.3889 0 0 0 0 0 34.7333 0 0 34.7333 0 0 0 0 0 16.8815 -4.4493 345.6606 17.4414 0 0 0 0 0 118.1234 -22.3551 11.4908 115.8455 0 0 2.2226 -5.6682 350.0613 264.3284 -9.659 334.4409 50.877 -299.1989 220.1911 350.8801 -347.6791 348.3655 38.545 -314.2823 221.9419 6.4051 -336.2506 254.4249 0 0 0 224.3658 -349.3881 10.6627 321.7094 0 0 0 0 0 12.9445 0 0 12.9445 0 0 0 0 0 359.9426 -0.0154 15 359.9406 0 0 0 0 0 32.1785 -346.0535 20.9591 34.7706 0 0 
